<svg width="1518" height="747" viewBox="0 0 1518 747" fill="none" xmlns="http://www.w3.org/2000/svg">
<g filter="url(#filter0_i_4512_34)">
<path opacity="0.2" d="M17.6865 456.288C174.942 298.876 541.462 78.4998 749.492 456.288C957.522 834.077 1333.63 317.316 1495.69 11.712" stroke="#E1BEE7" stroke-width="50"/>
<path opacity="0.3" d="M17.6865 475.222C174.942 317.81 541.462 97.4331 749.492 475.222C957.522 853.01 1333.63 336.249 1495.69 30.6454" stroke="#E1BEE7" stroke-width="50"/>
<path opacity="0.4" d="M17.6865 494.155C174.942 336.743 541.462 116.366 749.492 494.155C957.522 871.944 1333.63 355.183 1495.69 49.5787" stroke="#E1BEE7" stroke-width="50"/>
<path opacity="0.5" d="M17.6865 494.155C174.942 336.743 541.462 116.366 749.492 494.155C957.522 871.944 1333.63 355.183 1495.69 49.5787" stroke="#4CAF50" stroke-width="50"/>
<path opacity="0.6" d="M17.6865 513.088C174.942 355.676 541.462 135.3 749.492 513.088C957.522 890.877 1333.63 374.116 1495.69 68.512" stroke="#E1BEE7" stroke-width="50"/>
<path opacity="0.7" d="M17.6865 532.022C174.942 374.61 541.462 154.233 749.492 532.022C957.522 909.81 1333.63 393.049 1495.69 87.4453" stroke="#4CAF50" stroke-width="50"/>
<path opacity="0.8" d="M17.6865 550.955C174.942 393.543 541.462 173.167 749.492 550.955C957.522 928.744 1333.63 411.983 1495.69 106.379" stroke="#E1BEE7" stroke-width="50"/>
<path opacity="0.9" d="M17.6865 569.888C174.942 412.476 541.462 192.1 749.492 569.888C957.522 947.677 1333.63 430.916 1495.69 125.312" stroke="#4CAF50" stroke-width="50"/>
<path d="M17.6865 588.822C174.942 431.41 541.462 211.033 749.492 588.822C957.522 966.61 1333.63 449.849 1495.69 144.245" stroke="#E1BEE7" stroke-width="50"/>
</g>
<defs>
<filter id="filter0_i_4512_34" x="0" y="0" width="1517.77" height="750.712" filterUnits="userSpaceOnUse" color-interpolation-filters="sRGB">
<feFlood flood-opacity="0" result="BackgroundImageFix"/>
<feBlend mode="normal" in="SourceGraphic" in2="BackgroundImageFix" result="shape"/>
<feColorMatrix in="SourceAlpha" type="matrix" values="0 0 0 0 0 0 0 0 0 0 0 0 0 0 0 0 0 0 127 0" result="hardAlpha"/>
<feOffset dy="4"/>
<feGaussianBlur stdDeviation="2"/>
<feComposite in2="hardAlpha" operator="arithmetic" k2="-1" k3="1"/>
<feColorMatrix type="matrix" values="0 0 0 0 0 0 0 0 0 0 0 0 0 0 0 0 0 0 0.25 0"/>
<feBlend mode="normal" in2="shape" result="effect1_innerShadow_4512_34"/>
</filter>
</defs>
</svg>
